<svg xmlns="http://www.w3.org/2000/svg"  viewBox="0 0 512 512" width="64px" height="64px"><path d="M 55.964844 59 A 47.752 47.752 0 0 0 8 106.68164 L 8 385.02148 A 48.006 48.006 0 0 0 55.964844 433 L 186.08789 433 A 31.885 31.885 0 0 1 197.02148 434.9375 L 239.59961 450.42383 A 48.071 48.071 0 0 0 272.4082 450.42383 L 314.98242 434.93359 A 31.908 31.908 0 0 1 325.91211 433 L 456.03516 433 A 48.006 48.006 0 0 0 504 385.02148 L 504 106.68164 A 47.752 47.752 0 0 0 456.03516 59 L 325.91211 59 A 47.713 47.713 0 0 0 309.51367 61.730469 L 266.93945 77.130859 A 32.052 32.052 0 0 1 245.06641 77.091797 L 202.49023 61.751953 A 47.709 47.709 0 0 0 186.08789 59 L 55.964844 59 z M 55.964844 75 L 186.08789 75 A 31.728 31.728 0 0 1 197.02148 76.767578 L 239.5957 92.167969 A 47.582 47.582 0 0 0 248 94.300781 L 248 436.30078 C 247.011 436.04478 246.03045 435.74067 245.06445 435.38867 L 202.49023 419.90039 A 47.851 47.851 0 0 0 186.08984 417 L 55.964844 417 A 31.987 31.987 0 0 1 24 385.02148 L 24 106.68164 A 31.735 31.735 0 0 1 55.964844 75 z M 325.91211 75 L 456.03516 75 A 31.735 31.735 0 0 1 488 106.68164 L 488 385.02148 A 31.987 31.987 0 0 1 456.03516 417 L 325.91211 417 A 47.851 47.851 0 0 0 309.51367 419.90039 L 266.93945 435.38672 C 265.97345 435.73872 264.99291 436.04087 264.00391 436.29688 L 264.00391 94.300781 A 47.818 47.818 0 0 0 272.40234 92.089844 L 314.97852 76.767578 A 31.751 31.751 0 0 1 325.91211 75 z M 318.30078 144 A 8 8 0 0 0 318.30078 160 L 369.46094 160 A 8 8 0 0 0 369.46094 144 L 318.30078 144 z M 85.892578 148 A 7.966 7.966 0 0 0 78.205078 158.18164 L 125 320.44727 L 125 342 L 109 342 A 8 8 0 0 0 109 358 L 158 358 A 8 8 0 0 0 158 342 L 141 342 L 141 320.43359 L 191.64062 158.33398 A 7.962 7.962 0 0 0 184.00586 148 L 85.892578 148 z M 96.523438 164 L 173.12305 164 L 161.24023 202.01367 A 26.272 26.272 0 0 0 150.59766 199.96289 C 140.26466 199.96289 134.65555 204.49078 130.56055 207.80078 C 127.14055 210.56678 125.26008 212.08594 120.58008 212.08594 C 116.01008 212.08594 114.40122 210.72925 111.19922 208.03125 C 110.41322 207.36925 109.56281 206.68275 108.63281 205.96875 L 96.523438 164 z M 318.30078 207 A 8 8 0 0 0 318.30078 223 L 439.45508 223 A 8 8 0 0 0 439.45508 207 L 318.30078 207 z M 151.48242 215.92383 A 8.853 8.853 0 0 1 156.38477 217.5332 L 133.29102 291.45508 L 114.86914 227.57031 A 30.978 30.978 0 0 0 120.58008 228.08203 C 130.91408 228.08203 136.52119 223.54733 140.61719 220.23633 C 144.03719 217.47233 145.91866 215.94922 150.59766 215.94922 A 8.853 8.853 0 0 1 151.48242 215.92383 z M 318.30078 270 A 8 8 0 0 0 318.30078 286 L 439.45508 286 A 8 8 0 0 0 439.45508 270 L 318.30078 270 z M 318.30078 332 A 8 8 0 0 0 318.30078 348 L 439.45508 348 A 8 8 0 0 0 439.45508 332 L 318.30078 332 z"/></svg>