<?xml version="1.0" encoding="UTF-8" standalone="no"?>
<!DOCTYPE svg PUBLIC "-//W3C//DTD SVG 1.1//EN" "http://www.w3.org/Graphics/SVG/1.1/DTD/svg11.dtd">
<svg width="100%" height="100%" viewBox="0 0 45 43" version="1.1" xmlns="http://www.w3.org/2000/svg" xmlns:xlink="http://www.w3.org/1999/xlink" xml:space="preserve" xmlns:serif="http://www.serif.com/" style="fill-rule:evenodd;clip-rule:evenodd;stroke-linejoin:round;stroke-miterlimit:2;">
    <g transform="matrix(1,0,0,1,-1.99764,-2.99998)">
        <path d="M11.924,3.002C11.308,3.033 10.771,3.441 10.576,4.025L8.689,9.689L3.025,11.576C2.413,11.779 1.998,12.355 1.998,13C1.998,13.645 2.413,14.221 3.025,14.424L8.688,16.313L10.576,21.975C10.779,22.587 11.355,23.002 12,23.002C12.645,23.002 13.221,22.587 13.424,21.975L15.311,16.311L20.975,14.424C21.587,14.221 22.002,13.645 22.002,13C22.002,12.355 21.587,11.779 20.975,11.576L15.311,9.689L13.424,4.025C13.211,3.388 12.595,2.967 11.924,3.002ZM12,9.246L12.701,11.35C12.85,11.797 13.203,12.15 13.65,12.299L15.754,13L13.65,13.701C13.203,13.85 12.85,14.203 12.701,14.65L12,16.754L11.299,14.65C11.15,14.203 10.797,13.85 10.35,13.701L8.246,13L10.35,12.299C10.797,12.15 11.15,11.797 11.299,11.35L12,9.246ZM31.439,12.002C30.812,12.027 30.265,12.444 30.072,13.041L27.146,22.146L18.041,25.072C17.423,25.272 17.001,25.851 17.001,26.5C17.001,27.149 17.423,27.728 18.041,27.928L27.146,30.854L30.072,39.959C30.272,40.577 30.851,40.999 31.5,40.999C32.149,40.999 32.728,40.577 32.928,39.959L35.854,30.854L44.959,27.928C45.577,27.728 45.999,27.149 45.999,26.5C45.999,25.851 45.577,25.272 44.959,25.072L35.854,22.146L32.928,13.041C32.722,12.402 32.111,11.975 31.439,12.002ZM31.5,18.4L33.234,23.797C33.382,24.257 33.743,24.618 34.203,24.766L39.6,26.5L34.203,28.234C33.743,28.382 33.382,28.743 33.234,29.203L31.5,34.6L29.766,29.203C29.618,28.743 29.257,28.382 28.797,28.234L23.4,26.5L28.797,24.766C29.257,24.618 29.618,24.257 29.766,23.797L31.5,18.4ZM10.424,28.002C9.808,28.033 9.271,28.441 9.076,29.025L7.563,33.564L3.025,35.076C2.413,35.279 1.998,35.855 1.998,36.5C1.998,37.145 2.413,37.721 3.025,37.924L7.563,39.436L9.076,43.975C9.279,44.587 9.855,45.002 10.5,45.002C11.145,45.002 11.721,44.587 11.924,43.975L13.436,39.436L17.975,37.924C18.587,37.721 19.002,37.145 19.002,36.5C19.002,35.855 18.587,35.279 17.975,35.076L13.438,33.563L11.924,29.025C11.711,28.388 11.095,27.967 10.424,28.002ZM10.5,34.244L10.826,35.225C10.975,35.672 11.328,36.025 11.775,36.174L12.754,36.5L11.775,36.826C11.328,36.975 10.975,37.328 10.826,37.775L10.5,38.756L10.172,37.775C10.023,37.328 9.671,36.975 9.223,36.826L8.244,36.5L9.223,36.174C9.671,36.025 10.023,35.672 10.172,35.225L10.5,34.244Z" style="fill-rule:nonzero;"/>
    </g>
</svg>
