<?xml version="1.0" encoding="UTF-8" standalone="no"?>
<!DOCTYPE svg PUBLIC "-//W3C//DTD SVG 1.1//EN" "http://www.w3.org/Graphics/SVG/1.1/DTD/svg11.dtd">
<svg width="100%" height="100%" viewBox="0 0 25 25" version="1.1" xmlns="http://www.w3.org/2000/svg" xmlns:xlink="http://www.w3.org/1999/xlink" xml:space="preserve" xmlns:serif="http://www.serif.com/" style="fill-rule:evenodd;clip-rule:evenodd;stroke-linejoin:round;stroke-miterlimit:2;">
    <g transform="matrix(1,0,0,1,-3.5,-3.5)">
        <path d="M9.75,3.5C7.051,4.855 4.855,7.051 3.5,9.75L5.281,10.625C6.441,8.313 8.313,6.441 10.625,5.281L9.75,3.5ZM22.25,3.5L21.375,5.281C23.688,6.441 25.559,8.313 26.719,10.625L28.5,9.75C27.145,7.051 24.949,4.855 22.25,3.5ZM16,5C9.938,5 5,9.938 5,16C5,18.953 6.164,21.648 8.063,23.625L5.969,26.938L7.656,28L9.594,24.938C11.398,26.234 13.617,27 16,27C18.383,27 20.602,26.234 22.406,24.938L24.313,28L26,26.938L23.938,23.625C25.836,21.648 27,18.953 27,16C27,9.938 22.063,5 16,5ZM16,7C20.98,7 25,11.02 25,16C25,20.98 20.98,25 16,25C11.02,25 7,20.98 7,16C7,11.02 11.02,7 16,7ZM15,9L15,17L21,17L21,15L17,15L17,9L15,9Z" style="fill-rule:nonzero;"/>
    </g>
</svg>
