<?xml version="1.0" encoding="UTF-8" standalone="no"?>
<!DOCTYPE svg PUBLIC "-//W3C//DTD SVG 1.1//EN" "http://www.w3.org/Graphics/SVG/1.1/DTD/svg11.dtd">
<svg width="100%" height="100%" viewBox="0 0 32 32" version="1.1" xmlns="http://www.w3.org/2000/svg" xmlns:xlink="http://www.w3.org/1999/xlink" xml:space="preserve" xmlns:serif="http://www.serif.com/" style="fill-rule:evenodd;clip-rule:evenodd;stroke-linejoin:round;stroke-miterlimit:2;">
    <path d="M15,4C14.477,4 13.941,4.184 13.563,4.563C13.184,4.941 13,5.477 13,6L13,7L7,7L7,9L8,9L8,25C8,26.645 9.355,28 11,28L23,28C24.645,28 26,26.645 26,25L26,9L27,9L27,7L21,7L21,6C21,5.477 20.816,4.941 20.438,4.563C20.059,4.184 19.523,4 19,4L15,4ZM15,6L19,6L19,7L15,7L15,6ZM10,9L24,9L24,25C24,25.555 23.555,26 23,26L11,26C10.445,26 10,25.555 10,25L10,9ZM12,12L12,23L14,23L14,12L12,12ZM16,12L16,23L18,23L18,12L16,12ZM20,12L20,23L22,23L22,12L20,12Z" style="fill-rule:nonzero;"/>
</svg>
